<?xml version="1.0" standalone="no"?><!DOCTYPE svg PUBLIC "-//W3C//DTD SVG 1.1//EN" "http://www.w3.org/Graphics/SVG/1.1/DTD/svg11.dtd"><svg t="1682045668444" class="icon" viewBox="0 0 1024 1024" version="1.1" xmlns="http://www.w3.org/2000/svg" p-id="3284" xmlns:xlink="http://www.w3.org/1999/xlink" width="64" height="64"><path d="M363 252h8.582c298.234 0 540 241.766 540 540v80.007c0 22.09-17.909 40-40 40s-40-17.91-40-40V792c0-254.051-205.95-460-460-460H363v132.533c0 8.836-7.163 16-16 16a16 16 0 0 1-9.747-3.312L118.517 309.188c-7.008-5.383-8.324-15.428-2.941-22.435a16 16 0 0 1 2.94-2.941l218.737-168.033c7.007-5.383 17.052-4.066 22.435 2.941a16 16 0 0 1 3.312 9.747V252z" fill="#333333" p-id="3285"></path></svg>