<?xml version="1.0" standalone="no"?><!DOCTYPE svg PUBLIC "-//W3C//DTD SVG 1.1//EN" "http://www.w3.org/Graphics/SVG/1.1/DTD/svg11.dtd"><svg t="1682409231620" class="icon" viewBox="0 0 1024 1024" version="1.1" xmlns="http://www.w3.org/2000/svg" p-id="42781" xmlns:xlink="http://www.w3.org/1999/xlink" width="64" height="64"><path d="M256 256h192a32 32 0 0 1 32 32v384a32 32 0 0 1-32 32H256a32 32 0 0 1-32-32V288a32 32 0 0 1 32-32z m320-160h192a32 32 0 0 1 32 32v544a32 32 0 0 1-32 32h-192a32 32 0 0 1-32-32V128a32 32 0 0 1 32-32z m0 32v544h192V128h-192z" fill="#2c2c2c" p-id="42782" data-spm-anchor-id="a313x.7781069.0.i7" class="selected"></path><path d="M560 112m32 0l160 0q32 0 32 32l0 512q0 32-32 32l-160 0q-32 0-32-32l0-512q0-32 32-32Z" fill="#FFFFFF" p-id="42783"></path><path d="M184.64 832h698.24l-50.944-45.344 21.28-23.904 101.856 90.656-101.856 91.04-21.312-23.872L895.2 864H168.672l65.12 57.984-21.28 23.904-101.856-90.688 17.344-15.488V832h8.64l75.84-67.808 21.344 23.872z" fill="#2c2c2c" p-id="42784" data-spm-anchor-id="a313x.7781069.0.i8" class="selected"></path></svg>