<?xml version="1.0" standalone="no"?><!DOCTYPE svg PUBLIC "-//W3C//DTD SVG 1.1//EN" "http://www.w3.org/Graphics/SVG/1.1/DTD/svg11.dtd"><svg t="1682408626014" class="icon" viewBox="0 0 1024 1024" version="1.1" xmlns="http://www.w3.org/2000/svg" p-id="13464" xmlns:xlink="http://www.w3.org/1999/xlink" width="64" height="64"><path d="M67.21 907.47H845.2v52.09H67.21zM771.67 293.24h52.09v552.25h-52.09zM96.446 521.881l668.926-330.918 23.093 46.679L119.538 568.56zM599.25 397.42h52.09v448.06h-52.09zM426.81 466.88h52.09v378.61h-52.09z" fill="#2c2c2c" p-id="13465"></path><path d="M556.36 185.45h232.11v52.09H556.36zM254.39 553.7h52.09v291.79h-52.09zM81.95 640.52h52.09v204.96H81.95z" fill="#2c2c2c" p-id="13466"></path><path d="M727.13 522.6c-126.68 0-229.37-102.69-229.37-229.37S600.45 63.86 727.13 63.86 956.5 166.55 956.5 293.23 853.81 522.6 727.13 522.6z" fill="#2c2c2c" opacity=".6" p-id="13467"></path></svg>