<?xml version="1.0" standalone="no"?><!DOCTYPE svg PUBLIC "-//W3C//DTD SVG 1.1//EN" "http://www.w3.org/Graphics/SVG/1.1/DTD/svg11.dtd"><svg t="1683362923952" class="icon" viewBox="0 0 1280 1024" version="1.1" xmlns="http://www.w3.org/2000/svg" p-id="1645" width="160" height="128" xmlns:xlink="http://www.w3.org/1999/xlink"><path d="M547 775H401.8c-19.2 0-34.8-15.6-34.8-34.8V262.8c0-19.2 15.6-34.8 34.8-34.8h477.4c19.2 0 34.8 15.6 34.8 34.8V408c0 18.8 15.2 34 34 34s34-15.2 34-34V229.1c0-38.2-31-69.1-69.1-69.1H368.1c-38.2 0-69.1 31-69.1 69.1v544.7c0 38.2 31 69.1 69.1 69.1H547c18.8 0 34-15.2 34-34 0-18.7-15.2-33.9-34-33.9z" p-id="1646"></path><path d="M971.6 547.5c-13.3-13.3-34.8-13.3-48.1 0L829.1 642l-94.5-94.5c-13.3-13.3-34.8-13.3-48.1 0-13.3 13.3-13.3 34.8 0 48.1l94.5 94.5-94.5 94.5c-13.3 13.3-13.3 34.8 0 48.1 13.3 13.3 34.8 13.3 48.1 0l94.5-94.5 94.5 94.5c13.3 13.3 34.8 13.3 48.1 0 13.3-13.3 13.3-34.8 0-48.1l-94.5-94.5 94.5-94.5c13.2-13.3 13.2-34.8-0.1-48.1z" fill="#d81e06" p-id="1647" data-spm-anchor-id="a313x.7781069.0.i1" class="selected"></path></svg>