<?xml version="1.0" standalone="no"?><!DOCTYPE svg PUBLIC "-//W3C//DTD SVG 1.1//EN" "http://www.w3.org/Graphics/SVG/1.1/DTD/svg11.dtd"><svg t="1684461104218" class="icon" viewBox="0 0 1024 1024" version="1.1" xmlns="http://www.w3.org/2000/svg" p-id="11245" xmlns:xlink="http://www.w3.org/1999/xlink" width="128" height="128"><path d="M808 76c17.7 0 32 14.3 32 32v384c0 4.4-3.6 8-8 8h-56c-4.4 0-8-3.6-8-8V148H208v704h232c4.4 0 8 3.6 8 8v56c0 4.4-3.6 8-8 8H168c-17.7 0-32-14.3-32-32V108c0-17.7 14.3-32 32-32h640zM661.4 503.8c1.8-2.4 5.4-2.4 7.2 0L788 654.7c2.4 2.9 0.2 7.3-3.6 7.3H699v254c0 4.42-3.58 8-8 8h-52c-4.42 0-8-3.58-8-8V662h-85.4c-3.8 0-6-4.3-3.6-7.3l119.4-150.9zM480 400c4.4 0 8 3.6 8 8v48c0 4.4-3.6 8-8 8H296c-4.4 0-8-3.6-8-8v-48c0-4.4 3.6-8 8-8h184z m200-144c4.4 0 8 3.6 8 8v48c0 4.4-3.6 8-8 8H296c-4.4 0-8-3.6-8-8v-48c0-4.4 3.6-8 8-8h384z" p-id="11246"></path></svg>