<?xml version="1.0" standalone="no"?><!DOCTYPE svg PUBLIC "-//W3C//DTD SVG 1.1//EN" "http://www.w3.org/Graphics/SVG/1.1/DTD/svg11.dtd"><svg t="1684461192031" class="icon" viewBox="0 0 1024 1024" version="1.1" xmlns="http://www.w3.org/2000/svg" p-id="12267" xmlns:xlink="http://www.w3.org/1999/xlink" width="128" height="128"><path d="M786.722134 786.931466h-549.496601a10.466602 10.466602 0 0 1-10.466602-10.466602V425.15337a10.466602 10.466602 0 0 1 20.933204 0v340.844892h528.563397V427.351357a10.466602 10.466602 0 0 1 20.933204 0v349.113507a10.466602 10.466602 0 0 1-10.466602 10.466602zM372.663362 373.448357A10.466602 10.466602 0 0 1 365.022742 355.864466l133.972505-144.543773a10.7806 10.7806 0 0 1 7.431287-3.349313 10.152604 10.152604 0 0 1 7.588287 2.982982l144.596106 140.828129a10.466602 10.466602 0 0 1-14.60091 15.019574L507.054531 233.405223 380.356314 370.099044a10.466602 10.466602 0 0 1-7.692952 3.349313z" fill="#2c2c2c" p-id="12268"></path><path d="M511.973833 636.997394a10.466602 10.466602 0 0 1-10.466601-10.466602V225.031942a10.466602 10.466602 0 1 1 20.933203 0v401.49885a10.466602 10.466602 0 0 1-10.466602 10.466602z" fill="#2c2c2c" p-id="12269"></path></svg>